<svg xmlns="http://www.w3.org/2000/svg" xmlns:xlink="http://www.w3.org/1999/xlink" viewBox="0 0 652.5 261"><defs><style>.cls-1{isolation:isolate;}.cls-2{fill:url(#_4);}.cls-3{fill:url(#_154);}.cls-4{fill:url(#_154-2);}.cls-5{fill:url(#_154-3);}.cls-6{fill:url(#_161);}.cls-7{fill:url(#_161-2);}.cls-8{fill:url(#_161-3);}.cls-9{fill:url(#_161-4);}.cls-10{fill:url(#_161-5);}.cls-11{fill:url(#_154-4);}.cls-12{fill:url(#_158);}.cls-13{fill:url(#_161-6);}.cls-14{fill:url(#_161-7);}.cls-15{fill:url(#_161-8);}.cls-16{fill:url(#_154-5);}.cls-17{fill:url(#_161-9);}.cls-18{fill:url(#_161-10);}.cls-19{fill:url(#_161-11);}.cls-20{fill:url(#_161-12);}.cls-21{fill:url(#_161-13);}.cls-22{fill:url(#_158-2);}.cls-23{fill:url(#_43);}.cls-24{fill:url(#_43-2);}.cls-25{fill:url(#_154-6);}.cls-26{fill:url(#_161-14);}.cls-27{fill:url(#_161-15);}.cls-28{fill:url(#_154-7);}.cls-29{fill:url(#_161-16);}.cls-30{fill:url(#_161-17);}.cls-31{fill:url(#_161-18);}.cls-32,.cls-33{fill-rule:evenodd;}.cls-32{fill:url(#_85);}.cls-33{fill:url(#_76);}.cls-34,.cls-35{fill:#aa86a1;}.cls-34{opacity:0.2;}.cls-34,.cls-38{mix-blend-mode:multiply;}.cls-36{fill:#935251;}.cls-36,.cls-37{mix-blend-mode:screen;}.cls-37{fill:#9f6665;}.cls-38{fill:#cce5aa;}</style><linearGradient id="_4" x1="326.25" y1="231.74" x2="326.25" gradientUnits="userSpaceOnUse"><stop offset="0.01" stop-color="#f8fbff"/><stop offset="0.4" stop-color="#dfe6ff"/><stop offset="0.51" stop-color="#dbe5ff"/><stop offset="0.61" stop-color="#cfe0ff"/><stop offset="0.72" stop-color="#bbd9ff"/><stop offset="0.83" stop-color="#9fcfff"/><stop offset="0.93" stop-color="#7bc2ff"/><stop offset="1" stop-color="#60b9ff"/></linearGradient><linearGradient id="_154" x1="576.2" y1="187.82" x2="576.2" y2="171.32" gradientUnits="userSpaceOnUse"><stop offset="0" stop-color="#bed6ff"/><stop offset="0.48" stop-color="#c5e1ff"/><stop offset="1" stop-color="#c7e5ff"/></linearGradient><linearGradient id="_154-2" x1="125.23" y1="180.32" x2="125.23" y2="164.42" xlink:href="#_154"/><linearGradient id="_154-3" x1="126.57" y1="101.81" x2="126.57" y2="21.13" xlink:href="#_154"/><linearGradient id="_161" x1="32.25" y1="54.12" x2="32.25" y2="20.65" gradientUnits="userSpaceOnUse"><stop offset="0" stop-color="#d6e5ff"/><stop offset="0.42" stop-color="#ddedff"/><stop offset="1" stop-color="#e0f1ff"/></linearGradient><linearGradient id="_161-2" x1="80.23" y1="69.19" x2="80.23" y2="52.68" xlink:href="#_161"/><linearGradient id="_161-3" x1="120.98" y1="83.93" x2="120.98" y2="68.13" xlink:href="#_161"/><linearGradient id="_161-4" x1="47.59" y1="91.17" x2="47.59" y2="78.7" xlink:href="#_161"/><linearGradient id="_161-5" x1="112.2" y1="95.67" x2="112.2" y2="89.02" xlink:href="#_161"/><linearGradient id="_154-4" x1="532.39" y1="98.29" x2="532.39" y2="17.37" xlink:href="#_154"/><linearGradient id="_158" x1="602.13" y1="44.65" x2="602.13" y2="17.53" gradientUnits="userSpaceOnUse"><stop offset="0" stop-color="#bed6ff"/><stop offset="0.31" stop-color="#d0e4ff"/><stop offset="0.66" stop-color="#dceeff"/><stop offset="1" stop-color="#e0f1ff"/></linearGradient><linearGradient id="_161-6" x1="510.97" y1="83.69" x2="510.97" y2="76.97" xlink:href="#_161"/><linearGradient id="_161-7" x1="597.46" y1="86.87" x2="643.95" y2="86.87" xlink:href="#_161"/><linearGradient id="_161-8" x1="555.96" y1="68.46" x2="555.96" y2="49.5" xlink:href="#_161"/><linearGradient id="_154-5" x1="342.31" y1="85.39" x2="342.31" y2="23.76" gradientTransform="matrix(1, 0.1, -0.1, 1.05, 0.05, -38.82)" xlink:href="#_154"/><linearGradient id="_161-9" x1="393.51" y1="45.07" x2="393.51" y2="33.1" gradientTransform="matrix(1, 0.1, -0.1, 1.05, 0.05, -38.82)" xlink:href="#_161"/><linearGradient id="_161-10" x1="318.75" y1="59.2" x2="318.75" y2="29.7" gradientTransform="matrix(1, 0.1, -0.1, 1.05, 0.05, -38.82)" xlink:href="#_161"/><linearGradient id="_161-11" x1="264.95" y1="75.27" x2="264.95" y2="69.82" gradientTransform="matrix(1, 0.1, -0.1, 1.05, 0.05, -38.82)" xlink:href="#_161"/><linearGradient id="_161-12" x1="275.58" y1="68.03" x2="275.58" y2="48.35" gradientTransform="matrix(1, 0.1, -0.1, 1.05, 0.05, -38.82)" xlink:href="#_161"/><linearGradient id="_161-13" x1="345.63" y1="69.14" x2="345.63" y2="55.94" gradientTransform="matrix(1, 0.1, -0.1, 1.05, 0.05, -38.82)" xlink:href="#_161"/><linearGradient id="_158-2" x1="601.09" y1="146.95" x2="601.09" y2="125.79" gradientTransform="translate(11.99 -60.26) rotate(4.63)" xlink:href="#_158"/><linearGradient id="_43" x1="604.98" y1="140.77" x2="604.98" y2="125.39" gradientTransform="translate(11.99 -60.26) rotate(4.63)" gradientUnits="userSpaceOnUse"><stop offset="0" stop-color="#e6efff"/><stop offset="1" stop-color="#e0f1ff"/></linearGradient><linearGradient id="_43-2" x1="568.06" y1="145.56" x2="568.06" y2="140.87" xlink:href="#_43"/><linearGradient id="_154-6" x1="496.76" y1="53.89" x2="496.76" y2="40.63" xlink:href="#_154"/><linearGradient id="_161-14" x1="483.44" y1="49.67" x2="483.44" y2="40.67" xlink:href="#_161"/><linearGradient id="_161-15" x1="505.98" y1="47.18" x2="505.98" y2="41.86" xlink:href="#_161"/><linearGradient id="_154-7" x1="180.67" y1="29.18" x2="180.67" y2="5.05" gradientTransform="translate(-0.56 -9.81) rotate(4.27)" xlink:href="#_154"/><linearGradient id="_161-16" x1="172.35" y1="22.87" x2="172.35" y2="8.66" xlink:href="#_161"/><linearGradient id="_161-17" x1="147.59" y1="24.01" x2="147.59" y2="20.16" xlink:href="#_161"/><linearGradient id="_161-18" x1="203.25" y1="22.87" x2="203.25" y2="15.58" xlink:href="#_161"/><linearGradient id="_85" x1="326.25" y1="240.3" x2="326.25" y2="207.69" gradientUnits="userSpaceOnUse"><stop offset="0" stop-color="#ebf2ff"/><stop offset="1" stop-color="#dee0fa"/></linearGradient><linearGradient id="_76" y1="248.3" x2="652.5" y2="248.3" gradientUnits="userSpaceOnUse"><stop offset="0" stop-color="#eae4ea"/><stop offset="1" stop-color="#d8d8f7"/></linearGradient></defs><title>sky</title><g class="cls-1"><g id="Layer_1" data-name="Layer 1"><rect class="cls-2" width="652.5" height="231.74"/><path class="cls-3" d="M640.36,187.2s-24.73-8-35.12-3c0,0,2.36-14.18-12.1-12.78,0,0-18.86,6.11-25.85,14.17,0,0-2.72-3.3-4.7-3.23a3.24,3.24,0,0,0-2.74,1.9s-32.64-5-59.21,3.56l151.13-.73S647.26,185.21,640.36,187.2Z"/><path class="cls-4" d="M8,179.79a179,179,0,0,1,31.15-4.28l6.07,3.24s14-12.52,38.44-14.33c0,0,27.19-.58,35.91,13.59l17.28-.83s41.95,3.49,59.16.52,46.46,2.62,46.46,2.62Z"/><path class="cls-5" d="M0,27.85S28.76,17,49.53,22.91,71.29,61.47,71.29,61.47,86.15,49.61,99,52.58c8.57,2,6.92,10.22,5.44,15.55,3,3,32.37,12.14,38.36,14.12s6.59,5.45,9.42,8.49,18.81,6.74,29.53,6.54,25.2,2.62,39,2.94,32.42.89,32.42.89-42.57,1.56-59,0-30.66-1.17-52-2.85-62.83-.44-74-3.78c0,0-20.56,5-41.33,3.78S0,95.91,0,95.91Z"/><path class="cls-6" d="M0,54.12A103.86,103.86,0,0,0,31.07,43.35c15.82-8.58,20.44-14.51,20.44-14.51a36.13,36.13,0,0,0,7.25,3.63c5,2,5.74,3.26,5.74,3.26S60.41,24.31,44.42,21.14c0,0-18.78-3.18-44.42,6.71Z"/><path class="cls-7" d="M71.29,61.47l-5,4.3-9.23,2.36s14.51,2.37,23.74,0,14.5-11.5,14.5-11.5,3.65-4.4,8-1.84C103.36,54.79,90.08,47,71.29,61.47Z"/><path class="cls-8" d="M104.42,68.13l-5.11,2.58-3.46,1.65a90.67,90.67,0,0,1,19.62,3c8.9,2.63,9.39,4.94,16.15,7.08a41.72,41.72,0,0,0,14.49,1.4,168.13,168.13,0,0,0-23.1-8C108.67,71.75,104.42,68.13,104.42,68.13Z"/><path class="cls-9" d="M27.11,86.87S34,80.52,41.12,79s20.77,2.08,24.48,7.84l2.47,4.28a106.16,106.16,0,0,1-16.32-1c-8.9-1.23-10.19-4-13.84-6.23S27.11,86.87,27.11,86.87Z"/><path class="cls-10" d="M103.36,94.48a45.75,45.75,0,0,1,13.94-3.31,24.58,24.58,0,0,1,14.8,4.5s-3.36-5.26-18.73-6.5S92.3,94.48,92.3,94.48A16.18,16.18,0,0,0,103.36,94.48Z"/><path class="cls-11" d="M652.5,32.8s-31-20.28-56.27-14.34S571.75,50.6,571.75,50.6s-14.1-2-20,0-12,16-11.55,17.53c0,0-23.35,9.37-29.41,9.37s-20.84-.89-27.4,2.3a72.66,72.66,0,0,1-26.28,7.07c-9.95.57-29.93,7.24-44.79,7.61,0,0,51-3.48,56.6-3.74s13.79,5.75,28.32,6.54,29.94.68,43,1,40.48-2.86,69.41-3.78,42.92-7.09,42.92-7.09Z"/><path class="cls-12" d="M572.29,44.65A43,43,0,0,0,579,36.32c2.64-4.51,14.51-8.8,18.46-10.12s9.87-2.41,14.84-5.06S632,22.68,632,22.68s-20.22-8.74-38.57-3.43S572.29,44.65,572.29,44.65Z"/><path class="cls-13" d="M473.6,83.68s18.12-.23,21,0,6.42-2.37,17.7-3.88,36,0,36,0-23-1.93-26.85-2.3a83.71,83.71,0,0,0-9.22-.13,126.11,126.11,0,0,0-21.3.13A44.25,44.25,0,0,0,473.6,83.68Z"/><path class="cls-14" d="M597.46,90.4a225.59,225.59,0,0,1,24-1.66H644S623.38,84,616.09,83.38,597.46,90.4,597.46,90.4Z"/><path class="cls-15" d="M540.17,68.13s11.63.73,29.93,0l-10.39-1.71s1.65-10.71,3.14-12.69,8.9-3.13,8.9-3.13-15.33-2.47-21.27,0S540.17,68.13,540.17,68.13Z"/><path class="cls-16" d="M254,60.37s4.25-20.69,16.78-20.95,20,13.27,20,13.27,10.8-3.9,14.47-6.34S319.49,26.15,324,24.46c6.8-2.57,33.08-8.07,49,3.31l-1.47,10s23.61-2,43.13-1c0,0,15.4,2.23,15.25,18.72l21.21-.41s-25.81,2.24-42.2,5.36c0,0-24,7-77,11.82-40.19,3.68-59.69-2.34-79.15.13-22.51,2.21-36.12.87-36.12.87s18.68-.9,22.05-2.25c0,0,3.67-5.81,5.69-6.6S254,60.37,254,60.37Z"/><path class="cls-17" d="M371.55,37.76s-2.7,5.58-5.8,7.26c0,0,19.28-2.58,23.29-3.43s3.68-2.52,5.8-3.78,14.65-1.23,14.65-1.23S384.31,35.66,371.55,37.76Z"/><path class="cls-18" d="M290.78,52.69s16.89-3.31,19.31-4.56c0,0,13.37-.14,14.61-1s8.65-15.95,9.65-19.58-11.79-2.25-11.79-2.25-8,8.74-16.18,20C306.38,45.36,294,51.81,290.78,52.69Z"/><path class="cls-19" d="M243.32,65.12A139.57,139.57,0,0,0,269,63.48S258.87,61.83,254,60.37C254,60.37,244.65,63.75,243.32,65.12Z"/><path class="cls-20" d="M254.47,58.51s9.1-1.15,14.23-4.94c0,0,3.36-9.67,6-11.32s7.1.7,7.1.7-7-6.1-15.7-2.39S254.47,58.51,254.47,58.51Z"/><path class="cls-21" d="M319,64.85s4.66-7.18,12.61-9.22c2.68-.69,24.57,0,24.57,0s-11.9,1-13.49,1.07S335.9,65,335.9,65,326.35,68.93,319,64.85Z"/><path class="cls-22" d="M560,128.4s4.46-3.06,14.29-1.9c0,0,1.68-7.46,17.81-11.1S634,117.81,634,117.81l-.33,4.06,15.54-.19a238.89,238.89,0,0,1-36.49,5.65c-22,1.86-62.13,3.45-62.13,3.45Z"/><path class="cls-23" d="M574.28,126.5a157.54,157.54,0,0,0,23.1-1.41s3.82-8.3,6.67-8.73,9.79,1.62,13,1,17,.4,17,.4-18.33-5.78-38.09-3.08S574.28,126.5,574.28,126.5Z"/><path class="cls-24" d="M554.77,129.72s6.8-.41,12-.78l11.67-1.25a34.05,34.05,0,0,0-9.14-1.45s-7.93.11-9.27,2.16Z"/><path class="cls-25" d="M458.82,53.89l13.36-4.22s4.28-4.79,8.14-6.71,11.36-2.58,14.37-2.25,8.36,4.17,8.36,4.17,6.21-2.77,8.74-3,9.89,3.4,9.89,3.4l13-.32S501,49.44,458.82,53.89Z"/><path class="cls-26" d="M472.18,49.67s8.79-.48,11.26-1.14c0,0,.66-3.62,1.73-4.86s6.17-3,6.17-3l3.35,0s-9-.5-13.95,2.06A30.87,30.87,0,0,0,472.18,49.67Z"/><path class="cls-27" d="M503.05,44.88l-2.88,2.3s8-.11,9.89-1.15,1.73-4.17,1.73-4.17A21.64,21.64,0,0,0,503.05,44.88Z"/><path class="cls-28" d="M142,28.63S173.81,27,189.1,24.75s43.71-6.29,43.71-6.29l-13.43.28s-7.37-3.13-13.92-2.86-9.54,3.77-9.54,3.77S189,10.2,182.84,9s-18.19,4.35-19.62,7S160,22.58,160,22.58a32.17,32.17,0,0,0-8.76-2.34c-3.94-.25-11.18,2.06-11.37,2.91a10,10,0,0,0-.05,2.35l-16.4,3.2S134.84,29.32,142,28.63Z"/><path class="cls-29" d="M160,22.58s9.52.65,13.47,0c0,0,.13-7.58,1.73-9.19S182,9.27,184.7,9.6c0,0-1.71-1.43-7.09-.77s-13,4.56-14.15,6.11S160,22.58,160,22.58Z"/><path class="cls-30" d="M139.87,23.15A17.83,17.83,0,0,0,144,24c2.65.28,10.75-2.32,10.75-2.32l.58-.7a12.74,12.74,0,0,0-6.56-.63C145.24,21,140,22.22,139.87,23.15Z"/><path class="cls-31" d="M195.92,19.65l-4.48,3.22s10.63-2.06,11.21-2.31,4.12-3,5-3.29,7.38,0,7.38,0-6.26-2.35-11.81-1.51S195.92,19.65,195.92,19.65Z"/><path class="cls-32" d="M0,207.69S132.52,230,381.28,233.1c179.16,2.23,271.22-6.83,271.22-6.83v10.17L0,240.3Z"/><polygon class="cls-33" points="0 235.59 652.5 236.44 652.5 261 0 260.9 0 235.59"/><polygon class="cls-34" points="0 237.14 370.78 239.03 513.89 239.1 43.59 246.43 164.8 255.83 652.5 261 0 260.9 0 237.14"/><polygon class="cls-34" points="451.21 238.96 652.5 241.99 652.5 237.21 546.69 239.18 451.21 238.96"/><polygon class="cls-35" points="454.81 238.16 652.5 241.99 562.52 241.16 454.81 238.16"/><polygon class="cls-35" points="43.59 246.43 413.39 238.88 217.79 243.72 43.59 246.43"/><polygon class="cls-34" points="281.84 249.07 355.77 246.43 556.42 245.2 652.5 241.99 531.41 246.93 536.32 248.3 652.5 250.51 652.5 255.83 281.84 249.07"/><polygon class="cls-36" points="348.07 257.77 360.92 253.12 501.35 254.42 515.66 259.55 348.07 257.77"/><polygon class="cls-36" points="548.34 254.86 558.23 259.55 627.13 260.73 618.73 255.51 548.34 254.86"/><polygon class="cls-36" points="358.18 246.43 486.52 245.7 466.02 239.85 280.19 242.66 358.18 246.43"/><polygon class="cls-37" points="46.23 246.39 240.94 243.36 285.19 249.07 164.8 255.83 46.23 246.39"/><path class="cls-38" d="M562.85,211.92a50,50,0,0,0-1,10.65s1.4-8.65,3.95-12.91Z"/></g></g></svg>